# xmcd
#
# Track frame offsets: 
#        150
#        16030
#        29198
#        47605
#        66568
#        90855
#        106223
#        127492
#        142704
#        160882
#        179990
#        198918
#        213687
#
# Disc length: 2940 seconds
#
# Revision: 0
# Processed by: cddbd v1.5.2PL0 Copyright (c) Steve Scherf et al.
# Submitted via: ExactAudioCopy v1.0b1
#
DISCID=bf0b7a0d
DTITLE=Barrelhouse Chuck - Got My Eyes On You
DYEAR=2006
DGENRE=Chicago Blues, Electric Blues, Piano Blues
TTITLE0=Floyd's Blues
TTITLE1=Call My Job
TTITLE2=Got My Eyes On You
TTITLE3=Mother Earth
TTITLE4=Cleo's Mood
TTITLE5=It's You Baby
TTITLE6=School Days
TTITLE7=The Bright Sounds Of Big Moose
TTITLE8=Just To Be With You
TTITLE9=Big Town Playboy
TTITLE10=Red River Rumba
TTITLE11=Mama You Don't Mean Me No Good
TTITLE12=Iza Mae
EXTD=
EXTT0=
EXTT1=
EXTT2=
EXTT3=
EXTT4=
EXTT5=
EXTT6=
EXTT7=
EXTT8=
EXTT9=
EXTT10=
EXTT11=
EXTT12=
PLAYORDER=
